# xmcd
#
# Track frame offsets:
#  150
#  22272
#  43025
#  62697
#  82307
#  100162
#  122057
#  141485
#  157797
#  175762
#  201752
#
# Disc length: 2923 seconds
#
# Revision: 2
# Processed by: cddbd v1.5.1PL2 Copyright (c) Steve Scherf et al.
# Submitted via: Collectorz.com_Music_Collector 6.9
#
DISCID=990b690b
DTITLE=Dave Alvin - Blue Blvd
DYEAR=1991
DGENRE=Folk - Rock
TTITLE0=Blue Blvd
TTITLE1=Guilty Man
TTITLE2=haley's Comet
TTITLE3=Why Did She Stay with Him
TTITLE4=Rich Man's Town
TTITLE5=Gospel Night
TTITLE6=Plastic Rose
TTITLE7=Brand New Heart
TTITLE8=Wanda and Duane
TTITLE9=Andersonville
TTITLE10=Dry River
EXTD=
EXTT0=
EXTT1=
EXTT2=
EXTT3=
EXTT4=
EXTT5=
EXTT6=
EXTT7=
EXTT8=
EXTT9=
EXTT10=
PLAYORDER=
